<?xml version="1.0" encoding="utf-8"?>
<svg viewBox="0 0 800 800" width="800" height="800" xmlns="http://www.w3.org/2000/svg">
  <g transform="matrix(4.040238857269, 0, 0, 4.032797813416, -324.619713971479, -217.767347385874)" style="transform-origin: 89.3144px 113.406px;">
    <g transform="matrix(0.937501, 0, 0, 0.937502, 14.860641, 14.576538)">
      <path d="M 248.061 233.436 C 260.837 233.436 271.185 223.087 271.185 210.311 C 271.185 197.535 260.837 187.187 248.061 187.187 C 235.285 187.187 224.937 197.535 224.937 210.311 C 224.937 223.087 235.285 233.436 248.061 233.436 Z M 248.061 244.998 C 232.625 244.998 201.812 252.744 201.812 268.122 L 201.812 279.684 L 294.31 279.684 L 294.31 268.122 C 294.31 252.744 263.496 244.998 248.061 244.998 Z" style="fill: rgb(255, 215, 0);"/>
      <g>
        <path d="M 246.963 155.629 C 201.398 155.629 164.46 192.635 164.46 238.284 C 164.46 283.933 201.398 320.94 246.963 320.94 C 292.528 320.94 329.466 283.933 329.466 238.284 C 329.466 234.136 329.162 230.061 328.573 226.077 C 327.833 221.072 331.489 216.243 336.539 216.243 C 340.619 216.243 344.196 219.066 344.815 223.107 C 345.573 228.055 345.967 233.123 345.967 238.284 C 345.967 293.064 301.642 337.471 246.963 337.471 C 192.285 337.471 147.959 293.064 147.959 238.284 C 147.959 183.505 192.285 139.098 246.963 139.098 C 272.32 139.098 295.45 148.648 312.966 164.354 L 312.966 152.874 C 312.966 148.309 316.66 144.608 321.216 144.608 C 325.772 144.608 329.466 148.309 329.466 152.874 L 329.466 185.936 C 329.466 190.501 325.772 194.201 321.216 194.201 L 288.215 194.201 C 283.658 194.201 279.964 190.501 279.964 185.936 C 279.964 181.371 283.658 177.67 288.215 177.67 L 303.055 177.67 C 288.335 163.992 268.624 155.629 246.963 155.629 Z" style="fill: rgb(255, 215, 0);"/>
      </g>
    </g>
  </g>
</svg>