<svg xmlns="http://www.w3.org/2000/svg" width="254" height="188" viewBox="0 0 254 188" version="1.1"><path d="M 0 94.004 L 0 188.008 127.250 187.754 L 254.500 187.500 254.755 93.750 L 255.010 0 127.505 0 L 0 0 0 94.004 M 0.480 94.500 C 0.480 146.200, 0.601 167.203, 0.750 141.174 C 0.898 115.145, 0.898 72.845, 0.750 47.174 C 0.601 21.503, 0.480 42.800, 0.480 94.500 M 112.335 23.096 C 93.055 26.316, 71.791 40.346, 61.276 56.782 C 54.581 67.249, 50.160 79, 52.918 79 C 53.423 79, 54.473 79.244, 55.250 79.542 C 56.245 79.924, 57.518 78.076, 59.543 73.311 C 75.369 36.074, 118.966 17.656, 153.651 33.556 C 155.384 34.350, 157.124 35, 157.517 35 C 159.605 35, 172.361 44.717, 178.075 50.661 C 189.552 62.599, 198 81.225, 198 94.591 L 198 98.392 194.522 95.021 C 191.102 91.706, 191.010 91.681, 188.985 93.513 L 186.927 95.376 193.687 102.188 C 201.901 110.465, 201.121 110.450, 209.001 102.499 L 215.443 95.999 213.294 93.850 L 211.145 91.701 207.823 95.028 L 204.500 98.354 203.843 91.783 C 199.397 47.323, 157.150 15.612, 112.335 23.096 M 118.838 53.123 C 101.440 58.037, 96.821 82.131, 110.958 94.232 C 129.517 110.118, 157.264 90.310, 148.521 67.417 C 144.036 55.673, 131.383 49.580, 118.838 53.123 M 118.479 59.929 C 110.658 63.923, 106.489 73.755, 109.393 81.359 C 116.727 100.562, 144 96.007, 144 75.579 C 144 62.984, 129.686 54.206, 118.479 59.929 M 43.988 96.932 C 37.680 103.182, 36.809 105.292, 39.862 106.926 C 41.328 107.711, 42.215 107.400, 44.036 105.461 C 47.244 102.047, 47.781 102.319, 48.551 107.750 C 57.895 173.642, 132.927 201.201, 180.306 156.144 C 194.227 142.905, 204.789 120.237, 195.612 123.296 C 194.570 123.643, 194.516 123.735, 190.473 132 C 160.297 193.700, 67.973 180.117, 55.570 112.152 C 53.605 101.385, 53.704 101.038, 57.769 104.459 C 61.294 107.425, 62.280 107.573, 64.081 105.402 C 70.033 98.230, 50.843 90.141, 43.988 96.932 M 100 102.168 C 86.813 106.338, 83.620 111.361, 84.157 127.097 C 84.484 136.708, 84.630 137.288, 87.306 139.588 L 90.112 142 126.419 142 L 162.727 142 165.364 139.364 C 174.358 130.370, 167.492 107.488, 154.418 102.882 C 144.252 99.300, 143.271 99.568, 134.534 108.305 C 125.263 117.576, 127.288 117.612, 117.440 108 C 108.324 99.102, 108.991 99.325, 100 102.168 M 99.024 108.877 C 91.203 111.796, 85.869 129.469, 91.200 134.800 C 92.470 136.070, 157.208 136.625, 160.418 135.393 C 166.984 132.874, 161.416 112.048, 153.372 109.038 C 145.501 106.093, 145.274 106.178, 136 115.500 C 131.349 120.175, 127.074 124, 126.500 124 C 125.926 124, 121.651 120.175, 117 115.500 C 107.739 106.191, 106.974 105.909, 99.024 108.877" stroke="none" fill="#ffffff" fill-rule="evenodd"/><path d="M 112.335 23.096 C 93.055 26.316, 71.791 40.346, 61.276 56.782 C 54.581 67.249, 50.160 79, 52.918 79 C 53.423 79, 54.473 79.244, 55.250 79.542 C 56.245 79.924, 57.518 78.076, 59.543 73.311 C 75.369 36.074, 118.966 17.656, 153.651 33.556 C 155.384 34.350, 157.124 35, 157.517 35 C 159.605 35, 172.361 44.717, 178.075 50.661 C 189.552 62.599, 198 81.225, 198 94.591 L 198 98.392 194.522 95.021 C 191.102 91.706, 191.010 91.681, 188.985 93.513 L 186.927 95.376 193.687 102.188 C 201.901 110.465, 201.121 110.450, 209.001 102.499 L 215.443 95.999 213.294 93.850 L 211.145 91.701 207.823 95.028 L 204.500 98.354 203.843 91.783 C 199.397 47.323, 157.150 15.612, 112.335 23.096 M 118.838 53.123 C 101.440 58.037, 96.821 82.131, 110.958 94.232 C 129.517 110.118, 157.264 90.310, 148.521 67.417 C 144.036 55.673, 131.383 49.580, 118.838 53.123 M 118.479 59.929 C 110.658 63.923, 106.489 73.755, 109.393 81.359 C 116.727 100.562, 144 96.007, 144 75.579 C 144 62.984, 129.686 54.206, 118.479 59.929 M 43.988 96.932 C 37.680 103.182, 36.809 105.292, 39.862 106.926 C 41.328 107.711, 42.215 107.400, 44.036 105.461 C 47.244 102.047, 47.781 102.319, 48.551 107.750 C 57.895 173.642, 132.927 201.201, 180.306 156.144 C 194.227 142.905, 204.789 120.237, 195.612 123.296 C 194.570 123.643, 194.516 123.735, 190.473 132 C 160.297 193.700, 67.973 180.117, 55.570 112.152 C 53.605 101.385, 53.704 101.038, 57.769 104.459 C 61.294 107.425, 62.280 107.573, 64.081 105.402 C 70.033 98.230, 50.843 90.141, 43.988 96.932 M 100 102.168 C 86.813 106.338, 83.620 111.361, 84.157 127.097 C 84.484 136.708, 84.630 137.288, 87.306 139.588 L 90.112 142 126.419 142 L 162.727 142 165.364 139.364 C 174.358 130.370, 167.492 107.488, 154.418 102.882 C 144.252 99.300, 143.271 99.568, 134.534 108.305 C 125.263 117.576, 127.288 117.612, 117.440 108 C 108.324 99.102, 108.991 99.325, 100 102.168 M 99.024 108.877 C 91.203 111.796, 85.869 129.469, 91.200 134.800 C 92.470 136.070, 157.208 136.625, 160.418 135.393 C 166.984 132.874, 161.416 112.048, 153.372 109.038 C 145.501 106.093, 145.274 106.178, 136 115.500 C 131.349 120.175, 127.074 124, 126.500 124 C 125.926 124, 121.651 120.175, 117 115.500 C 107.739 106.191, 106.974 105.909, 99.024 108.877" stroke="none" fill="#000000" fill-rule="evenodd"/></svg>